PathFileType	4	(X/Y/Z)	C:/Users/beibeiliu/ov580/test_trc/capture2\sequence.3_training_dense_right.trc
DataRate	CameraRate	NumFrames	NumMarkers	Units	OrigDataRate	OrigDataStartFrame	OrigNumFrames
120	120	20	19	mm	120	88	350
Frame#	Time	ThumbCMC			ThumbMCP			ThumbIP			ThumbTip			IndexMCP			IndexPIP			IndexTip			MiddleMCP			MiddlePIP			MiddleTip			RingMCP			RingPIP			RingTip			PinkyMCP			PinkyPIP			PinkyTip			BackHand1			BackHand2			BackHand3	
		X0	Y0	Z0	X1	Y1	Z1	X2	Y2	Z2	X3	Y3	Z3	X4	Y4	Z4	X5	Y5	Z5	X6	Y6	Z6	X7	Y7	Z7	X8	Y8	Z8	X9	Y9	Z9	X10	Y10	Z10	X11	Y11	Z11	X12	Y12	Z12	X13	Y13	Z13	X14	Y14	Z14	X15	Y15	Z15	X16	Y16	Z16	X17	Y17	Z17	X18	Y18	Z18	
87	0.725	96.945	-23.2173	2.82974	80.0736	-30.651	-24.6522	79.6998	-33.2433	-54.4159	106.962	-33.6701	-68.8156	90.2426	-19.0569	-74.3298	92.1352	-47.1707	-81.6759	101.098	-61.9221	-51.9898	108.633	-23.687	-80.1731	110.844	-53.3851	-75.2885	119.215	-49.7942	-39.7793	129.09	-30.5699	-75.5313	131.424	-54.8718	-57.2413	128.26	-36.5598	-30.5089	148.559	-30.4485	-67.7138	142.617	-49.5736	-47.8077	140.515	-26.489	-23.9345	141.859	10.2881	-32.7967	147.865	7.1091	-3.83981	115.807	5.32273	-9.44745	
88	0.733333	96.8934	-13.275	1.75498	76.7973	-21.0722	-25.1535	80.5819	-20.9947	-52.9392	106.258	-21.6472	-66.8975	90.6096	-5.8876	-74.9815	94.4819	-37.1981	-83.1656	102.229	-47.5543	-51.8498	111.841	-9.91744	-82.8176	113.953	-39.9205	-79.7999	117.367	-37.7872	-41.0185	126.044	-18.4044	-76.7397	128.805	-42.07	-58.8747	130.949	-21.3953	-30.8943	145.46	-15.2359	-69.8425	143.759	-37.8452	-48.8943	139.206	-13.351	-25.4448	137.453	20.028	-37.0185	144.862	18.7053	-6.06302	113.091	17.1196	-12.1083	
89	0.741667	95.6954	1.23524	-5.73471	78.459	-7.64261	-27.4375	79.0588	-6.82671	-58.2559	103.029	-8.40053	-69.5151	88.9956	7.48263	-76.8956	89.2371	-20.7373	-86.5056	106.12	-33.3841	-55.6215	111.122	5.2214	-82.9682	112.131	-27.3463	-80.006	115.886	-22.3276	-43.3046	126.475	-4.1444	-79.5345	131.456	-27.6841	-64.0512	127.76	-11.4028	-34.5835	147.697	-3.34701	-72.9723	142.729	-23.975	-54.4433	140.907	-5.27653	-27.2654	141.406	34.0688	-36.4858	148.713	30.8665	-8.49054	110.937	30.739	-15.948	
90	0.75	94.4904	11.6969	-5.01461	76.7044	6.98279	-31.9923	79.2534	9.27825	-62.563	104.598	7.32611	-76.1504	85.3236	22.1002	-79.6143	92.5612	-4.63676	-89.563	102.526	-19.5536	-61.3601	110.672	21.9155	-84.035	111.199	-11.1728	-83.4536	117.561	-11.1863	-48.1507	129.723	13.2295	-81.1452	129.288	-13.5385	-62.8934	129.477	5.65139	-35.9081	146.196	12.887	-73.4738	145.431	-10.0212	-54.0531	140.52	8.33271	-30.7569	137.435	47.2997	-39.4357	145.259	41.1962	-3.91679	109.935	43.0266	-15.5788	
91	0.758333	97.5781	26.1471	-8.33309	76.9273	22.3092	-34.4831	79.6365	22.0999	-59.0782	102.219	24.0076	-77.9403	89.6464	39.5966	-81.1779	91.1231	8.92776	-90.5043	102.762	-3.16286	-63.0366	110.192	36.8767	-86.1736	112.739	3.26051	-84.0294	117.204	5.5243	-49.0254	127.74	27.9647	-83.0766	131.511	0.982102	-64.9372	128.195	17.9113	-38.8731	149.2	27.8696	-76.0389	143.166	5.75468	-55.0311	140.141	23.2991	-31.8389	139.241	62.8836	-39.9773	147.981	55.6388	-6.40947	112.278	54.8852	-13.8962	
92	0.766667	96.0653	40.144	-11.2073	82.0135	35.6795	-34.6002	78.5256	38.2309	-62.4231	104.302	39.6947	-75.5092	87.9748	55.806	-80.9954	90.7498	26.0956	-93.6073	104.313	12.509	-66.5889	110.439	54.1467	-87.4466	110.927	21.1477	-87.2344	121.081	19.6825	-53.7057	127.706	44.4686	-83.4579	131.055	17.3439	-72.331	131.262	35.6582	-38.657	147.299	40.4482	-78.3197	142.693	20.3252	-61.0672	138.845	38.9767	-32.3544	141.831	76.8608	-38.621	151.021	68.3573	-5.88077	114.556	67.4371	-15.3238	
93	0.775	98.2498	54.1088	-11.7504	80.1058	48.9264	-35.8827	81.4796	56.5739	-66.4188	104.05	57.1577	-82.4024	90.1007	73.6595	-81.1181	89.4729	46.0489	-96.4603	106.312	28.5054	-69.5432	109.864	72.2883	-86.3046	115.875	37.1046	-89.7369	118.65	35.7634	-54.0001	129.904	60.0142	-84.9832	131.106	34.0764	-74.0384	128.852	44.0494	-42.8824	148.02	58.0633	-77.9416	144.951	34.7417	-61.1287	141.106	53.3382	-33.6353	145.144	91.8133	-40.401	148.821	79.435	-4.79037	114.926	85.1227	-17.5089	
94	0.783333	100.758	63.27	-10.7603	81.1635	60.8396	-35.5913	80.7922	69.611	-67.4502	109.19	70.2004	-80.7412	94.379	87.9884	-82.7895	94.0881	59.6978	-97.4109	102.312	40.2176	-73.1186	112.923	85.2749	-88.2669	115.094	51.6981	-90.799	119.888	48.9191	-54.5696	132.665	73.276	-86.5856	133.506	46.1951	-74.4267	134.051	56.0851	-41.9178	148.056	73.3649	-76.3482	142.525	48	-62.3866	141.044	66.1764	-32.6124	147.295	101.119	-39.1795	152.259	91.402	-10.2272	116.404	95.0745	-12.9279	
95	0.791667	98.5603	76.6028	-12.5773	80.9505	75.0223	-37.4987	83.1179	84.0681	-69.7961	109.552	83.4242	-78.1337	93.9853	103.005	-79.8145	95.496	75.2165	-97.9067	103.738	54.1726	-74.9899	118.882	99.9163	-86.7447	115.547	66.5202	-93.0418	122.658	60.2423	-57.2035	133.368	88.5327	-84.6126	132.265	59.3002	-75.5769	133.72	67.8571	-42.4108	149.241	84.0399	-77.5754	144.684	59.5154	-60.5387	144.093	75.0243	-34.5628	147.49	114.053	-36.5234	154.137	102.632	-7.89383	121.429	107.891	-17.3419	
96	0.8	99.0624	89.3347	-13.2507	87.9778	89.4945	-40.339	86.0453	95.4226	-66.3019	112.319	95.5124	-80.0125	96.4556	115.534	-80.9591	94.2334	90.3263	-98.2864	108.83	66.4718	-77.4434	117.253	108.87	-89.8425	120.19	77.7871	-92.8732	121.621	70.3491	-58.4833	139.045	99.0244	-84.1168	133.632	68.9011	-71.7009	130.94	80.6199	-41.2625	156.499	93.8793	-78.7274	143.209	71.346	-61.345	145.548	81.0525	-33.0712	150.309	122.307	-34.8278	153.97	111.801	-7.53693	123.381	117.016	-12.8672	
97	0.808333	100.839	96.7933	-14.3579	90.516	98.0702	-39.5578	84.3399	105.033	-67.0618	114.446	104.929	-79.7266	103.366	126.016	-80.8924	100.362	99.5054	-97.0125	109.834	76.7916	-74.7443	119.947	118.733	-89.3063	118.286	88.3097	-92.0423	123.58	81.5753	-55.0206	139.726	104.901	-85.4442	137.958	78.088	-74.7359	138.406	87.0497	-41.4188	155.508	102.863	-76.5769	149.348	76.9838	-59.77	149.137	90.8528	-30.3092	155.743	130.25	-36.7469	158.214	119.546	-7.00142	125.067	125.568	-14.411	
98	0.816667	104.58	101.533	-12.3508	91.0067	100.764	-39.3358	89.7319	109.944	-66.2159	114.564	112.937	-84.8165	107.856	134.109	-79.3834	106.268	107.579	-95.3202	111.296	85.9331	-68.2609	127.115	127.456	-87.5907	123.184	94.2291	-89.5102	124.83	88.2822	-56.3444	145.235	115.738	-82.5184	139.257	86.8254	-75.4053	139.666	92.1301	-42.7297	163.722	109.22	-76.8259	147.14	85.7439	-60.7577	149.467	96.4525	-32.4983	157.798	135.255	-32.6276	163.987	121.712	-3.40242	127.754	132.415	-14.6872	
99	0.825	108.187	110.783	-15.3801	97.6414	104.017	-43.4434	91.6294	110.387	-72.5781	112.3	113.909	-93.7079	110.159	142.061	-76.1839	106.477	116.3	-90.0285	118.866	102.386	-58.9724	129.67	135.782	-85.3548	125.397	105.345	-89.2642	126.452	96.5925	-53.7438	147.861	121.036	-82.7173	141.857	92.3174	-73.3514	144.563	97.9317	-41.3033	165.016	111.757	-77.8467	153.879	88.5995	-60.8592	151.27	99.7361	-30.6632	166.512	139.189	-34.8927	171.922	124.83	-4.02241	136.22	137.16	-12.8074	
100	0.833333	114.341	114.566	-15.7204	99.337	107.75	-44.9228	95.1607	110.309	-71.8191	117.677	115.838	-91.939	118.825	147.184	-76.033	111.365	118.383	-86.0294	123.564	108.54	-58.1195	137.491	139.44	-82.8058	129.434	108.638	-86.9442	130.965	100.935	-53.1638	153.494	126.574	-81.6379	141.057	97.7114	-74.2844	145.608	103.994	-39.0391	168.347	117.104	-75.0563	152.813	94.4246	-63.942	156.792	101.237	-31.1632	169.927	140.312	-31.722	176.737	125.103	-4.66039	143.793	141.996	-10.9198	
101	0.841667	116.444	119.742	-18.8644	107.805	112.469	-48.2087	101.49	116.448	-77.4724	119.528	117.505	-95.4309	120.879	150.766	-76.3607	114.509	123.727	-85.9441	127.356	112.996	-54.2327	142.615	141.756	-84.4546	131.392	114.514	-87.8177	134.035	105.301	-49.8639	154.763	128.931	-81.6216	144.216	100.886	-74.5706	147.07	104.567	-40.8229	171.966	119.094	-73.4121	156.046	95.7253	-62.396	158.298	101.632	-30.9692	178.184	138.012	-30.0036	178.091	122.996	-3.26388	151.406	142.642	-11.7257	
102	0.85	125.637	120.575	-18.7646	110.34	114.221	-48.0439	107.148	118.099	-78.7264	127.031	116.601	-93.8144	132.683	153.646	-75.105	122.57	127.326	-87.7281	131.175	113.842	-56.5038	151.184	143.455	-83.1575	137.053	113.391	-87.3929	141.94	106.58	-49.0786	164.256	127.629	-81.3348	147.674	101.813	-76.3771	150.728	102.812	-42.1979	174.653	115.196	-76.6051	159.966	94.2099	-64.3634	163.457	98.6753	-33.2468	184.538	139.25	-34.3124	186.544	120.24	-3.05428	159.757	141.453	-11.8084	
103	0.858333	128.682	122.335	-17.5324	116.851	116.717	-48.5753	115.998	119.8	-76.77	138.189	118.498	-97.3707	142.557	153.418	-78.8793	126.111	128.73	-86.0289	131.956	116.481	-55.4191	160.14	141.367	-84.24	139.54	116.478	-87.2277	141.45	108.343	-52.9726	166.97	125.658	-83.9445	152.175	101.265	-77.7886	155.842	100.874	-43.9183	179.89	110.581	-79.2949	161.691	93.2377	-67.2312	164.508	96.0389	-34.3951	194.324	133.446	-35.2622	191.517	117.658	-4.92322	164.263	141.962	-11.1233	
104	0.866667	139.651	121.84	-18.5664	120.226	121.347	-50.9419	123.779	122.852	-78.6641	142.335	117.471	-95.0159	149.95	156.812	-75.7784	130.996	132.082	-86.5227	140.043	116.998	-57.9254	163.417	142.881	-86.0364	146.116	116.577	-89.5069	148.489	106.66	-54.2727	174.169	121.668	-85.2878	151.819	101.319	-76.3577	161.7	98.9953	-43.4761	185.874	107.871	-79.8153	164.257	89.493	-67.5438	167.824	96.408	-33.0666	201.316	125.806	-33.5322	197.825	108.513	-6.40054	176.297	134.549	-13.4169	
105	0.875	146.266	124.721	-19.5912	127.316	123.773	-50.9492	127.869	126.117	-81.2928	150.028	117.019	-97.387	160.338	154.454	-78.1302	139.761	134.894	-86.5081	143.448	117.832	-59.1266	173.136	138.039	-85.984	151.577	117.881	-90.8286	151.987	106.88	-53.9905	176.117	118.69	-86.1547	154.366	101.046	-75.7097	160.902	97.8852	-45.3335	187.92	102.095	-80.7528	163.766	88.8594	-65.592	170.978	91.1046	-36.1273	207.421	118.227	-37.9642	201.822	103.574	-8.12098	183.085	133.342	-15.9089	
106	0.883333	150.55	126.106	-18.2314	133.556	126.831	-49.3357	135.323	128.849	-80.0812	151.602	116.823	-95.4556	172.46	147.946	-79.179	150.667	132.419	-87.8556	152.079	115.364	-56.626	181.588	130.435	-87.7634	155.343	113.013	-89.0065	157.768	104.075	-50.7925	182.546	113.513	-86.5065	159.258	98.0443	-78.0674	164.384	96.0197	-46.2338	192.656	93.2615	-81.1986	166.796	81.1233	-65.3791	175.258	81.7672	-37.2574	216.386	106.058	-39.5571	208.172	90.9638	-9.4844	193.67	127.117	-17.1547	
